PathFileType	4	(X/Y/Z)	 s08c0001.trc
DataRate	CameraRate	NumFrames	NumMarkers	Units	OrigDataRate	OrigDataStartFrame	OrigNumFrames
200	200	4	49	mm	200	1751	2000
Frame#	Time	racr			lacr			c7			jug			rlel			rdr			llel			ldr			s2			lic			ric			lasi			rasi			rpsi			lpsi			rgt			lgt			rth1			rth2			rth3			rth4			rlfc			rmfc			rsh1			rsh2			rsh3			rsh4			rlmal			rmmal			rcal			rtoe			rmt5			rmt1			lth1			lth2			lth4			lth3			llfc			lmfc			llmal			lmmal			lcal			lmt1			lmt5			lsh1			lsh2			lsh3			lsh4			ltoe			
		X1	Y1	Z1	X2	Y2	Z2	X3	Y3	Z3	X4	Y4	Z4	X5	Y5	Z5	X6	Y6	Z6	X7	Y7	Z7	X8	Y8	Z8	X9	Y9	Z9	X10	Y10	Z10	X11	Y11	Z11	X12	Y12	Z12	X13	Y13	Z13	X14	Y14	Z14	X15	Y15	Z15	X16	Y16	Z16	X17	Y17	Z17	X18	Y18	Z18	X19	Y19	Z19	X20	Y20	Z20	X21	Y21	Z21	X22	Y22	Z22	X23	Y23	Z23	X24	Y24	Z24	X25	Y25	Z25	X26	Y26	Z26	X27	Y27	Z27	X28	Y28	Z28	X29	Y29	Z29	X30	Y30	Z30	X31	Y31	Z31	X32	Y32	Z32	X33	Y33	Z33	X34	Y34	Z34	X35	Y35	Z35	X36	Y36	Z36	X37	Y37	Z37	X38	Y38	Z38	X39	Y39	Z39	X40	Y40	Z40	X41	Y41	Z41	X42	Y42	Z42	X43	Y43	Z43	X44	Y44	Z44	X45	Y45	Z45	X46	Y46	Z46	X47	Y47	Z47	X48	Y48	Z48	X49	Y49	Z49	
1751	8.7550	429.074527	1529.018245	596.811645	417.259241	1544.753935	199.654941	370.242103	1584.046004	396.979941	500.464498	1487.302111	395.434819	387.642567	1235.616498	681.938868	463.337733	957.958554	790.928835	396.041614	1244.469774	98.813288	455.901802	973.724720	-4.959684	334.364775	1028.666256	404.544260	481.124456	1094.037134	238.910572	487.627171	1099.634057	555.806061	530.265924	1036.260875	269.412908	543.433826	1033.073610	521.105455	356.621397	1067.958364	452.241716	355.029896	1075.896924	352.911077	430.243011	955.267603	577.362693	435.052722	943.595347	212.312728	442.254920	804.033002	593.128272	463.348203	718.081765	588.645830	500.200064	718.400288	580.271538	439.292552	634.845141	578.323965	441.951434	511.695449	559.298168	426.071815	499.939929	455.831610	401.282891	387.440212	593.803564	423.630773	300.971976	576.084871	399.501000	218.346276	569.400778	450.297025	305.617335	545.995232	392.616189	97.779974	555.661758	407.562794	122.486893	469.848771	321.417145	65.489428	507.892889	612.081604	78.876280	510.560013	535.466782	47.829599	577.129878	538.724814	47.661173	464.026048	451.487712	814.994163	189.794429	470.229955	729.707494	193.279208	504.953346	727.632689	206.836267	443.020626	645.316086	196.505224	436.229677	518.398884	217.230999	441.234133	496.107019	315.805812	382.202564	107.303495	221.803842	412.451685	126.452742	302.145943	325.208785	74.373785	264.518481	542.004766	47.102071	295.872455	528.709057	42.973377	181.181108	413.096250	394.302825	190.906039	425.639339	310.567472	207.995906	395.822883	227.361258	207.749201	446.866247	312.746691	240.287750	610.624323	81.396939	243.116734	
1752	8.7600	429.076699	1529.034705	596.840464	417.274607	1544.770220	199.670648	370.240947	1584.052922	397.015265	500.455401	1487.299320	395.440516	387.596819	1235.645014	681.962616	463.301342	957.968934	790.953422	396.046741	1244.469038	98.828242	455.925479	973.737070	-4.938754	334.341666	1028.670786	404.549213	481.094420	1094.038684	238.913800	487.613404	1099.641735	555.824259	530.246933	1036.254308	269.423504	543.403223	1033.089186	521.119739	356.603256	1067.962968	452.246571	355.000232	1075.908866	352.886391	430.254166	955.266893	577.372351	435.032639	943.599640	212.309199	442.251203	804.035975	593.128702	463.337363	718.077868	588.650324	500.181676	718.405376	580.287198	439.286742	634.838020	578.329482	441.938422	511.686384	559.309245	426.064079	499.928440	455.834981	401.253161	387.376440	593.866559	423.644460	300.975791	576.083030	399.508375	218.347622	569.395565	450.287822	305.699182	546.003128	392.598771	97.790917	555.652535	407.558419	122.470161	469.839681	321.440495	65.485445	507.874568	612.087507	78.885544	510.559016	535.434612	47.833741	577.126752	538.717808	47.659159	464.036716	451.489051	814.994786	189.806099	470.149306	729.818189	193.435215	504.631440	725.803489	211.766101	442.992926	645.312175	196.511927	436.219293	518.429390	217.219578	441.223465	496.107653	315.807932	382.186457	107.322584	221.794473	412.484719	126.418139	302.152701	325.233736	74.378417	264.527794	541.986633	47.094552	295.854703	528.729137	42.985005	181.157227	413.081058	394.305804	190.904956	425.636730	310.577518	207.987565	395.848917	227.385253	207.760308	446.861685	312.744755	240.291811	610.629572	81.392976	243.131287	
1753	8.7650	429.085337	1529.040674	596.858969	417.246466	1544.762347	199.696908	370.205464	1584.052650	397.054707	500.486656	1487.306624	395.469718	387.591738	1235.648540	681.990890	463.266358	957.987862	790.994312	396.064292	1244.470695	98.865187	455.943470	973.733270	-4.912095	334.333407	1028.678249	404.558053	481.089683	1094.052929	238.915104	487.602445	1099.640561	555.822805	530.248736	1036.256986	269.447547	543.399471	1033.073487	521.121015	356.577392	1067.968423	452.235667	355.001167	1075.924289	352.906623	430.217083	955.261512	577.376543	435.034507	943.600787	212.326583	442.241903	804.045863	593.139149	463.327655	718.075886	588.651387	500.185877	718.396478	580.286108	439.382518	634.823752	578.481563	441.828802	511.603216	559.259436	426.058246	499.937259	455.847521	401.226452	387.375394	593.872542	423.643005	300.981096	576.098669	399.510458	218.346984	569.407317	450.274398	305.672965	545.991727	392.606043	97.803106	555.645970	407.579726	122.466768	469.827657	321.444507	65.473856	507.873809	612.098968	78.884164	510.554438	535.413125	47.838577	577.117967	538.716120	47.658438	464.030928	451.477003	815.002204	189.826299	470.197371	729.733764	193.266073	504.946524	727.641262	206.871874	442.990894	645.340952	196.515809	436.219302	518.429387	217.219586	441.220256	496.087387	315.809243	382.203802	107.318212	221.801176	412.488517	126.407447	302.124471	325.234829	74.369445	264.524042	542.017077	47.095287	295.860633	528.711912	42.991991	181.163605	413.070650	394.306397	190.912390	425.634281	310.596482	208.011100	395.826352	227.377203	207.746320	446.860177	312.757589	240.279456	610.632896	81.395108	243.137518	
1754	8.7700	429.095180	1529.048798	596.874664	417.268588	1544.762109	199.721922	370.234157	1584.051381	397.060390	500.468638	1487.309160	395.495726	387.565594	1235.646011	682.009201	463.216932	957.993512	791.019882	396.067086	1244.485832	98.874221	455.954808	973.745311	-4.884993	334.320180	1028.678688	404.554719	481.106918	1094.060629	238.943474	487.577772	1099.636256	555.834313	530.242637	1036.254023	269.451043	543.378063	1033.066977	521.137434	356.569203	1067.961375	452.234914	354.974994	1075.927011	352.905129	430.222828	955.261197	577.375663	435.040169	943.603319	212.330227	442.231782	804.030166	593.137285	463.317852	718.077023	588.669033	500.171277	718.391952	580.272725	439.359523	634.831842	578.481763	441.818369	511.602869	559.239829	426.072187	499.935321	455.849808	401.215451	387.378130	593.887603	423.630781	300.971970	576.084865	399.510701	218.351422	569.399246	450.295883	305.706260	546.021811	392.600838	97.798528	555.646476	407.564952	122.488749	469.847422	321.435612	65.483964	507.885535	612.091408	78.900651	510.570842	535.407566	47.874577	577.118004	538.717973	47.656237	464.032207	451.476304	814.990299	189.836039	470.199013	729.717021	193.279578	504.939324	727.635490	206.877762	442.972844	645.331121	196.500857	436.223412	518.406860	217.229868	441.205072	496.108424	315.822765	382.203798	107.318223	221.801164	412.476103	126.413792	302.167722	325.220301	74.379309	264.507762	542.005792	47.099523	295.873478	528.712217	42.983098	181.167043	413.069259	394.321238	190.919419	425.605817	310.582867	208.012693	395.824768	227.386710	207.758284	446.864217	312.773016	240.299451	610.623422	81.381779	243.112788	
